{
	"asset":{
		"generator":"Khronos glTF Blender I/O v4.1.63",
		"version":"2.0"
	},
	"extensionsUsed":[
		"KHR_materials_specular"
	],
	"scene":0,
	"scenes":[
		{
			"name":"Scene",
			"nodes":[
				0
			]
		}
	],
	"nodes":[
		{
			"mesh":0,
			"name":"textured",
			"rotation":[
				0.7071068286895752,
				0,
				0,
				0.7071068286895752
			]
		}
	],
	"materials":[
		{
			"doubleSided":true,
			"extensions":{
				"KHR_materials_specular":{
					"specularFactor":0
				}
			},
			"name":"textured_0",
			"pbrMetallicRoughness":{
				"baseColorTexture":{
					"index":0
				},
				"metallicFactor":0,
				"roughnessFactor":0.9683772325515747
			}
		}
	],
	"meshes":[
		{
			"name":"textured",
			"primitives":[
				{
					"attributes":{
						"POSITION":0,
						"NORMAL":1,
						"TEXCOORD_0":2
					},
					"indices":3,
					"material":0
				}
			]
		}
	],
	"textures":[
		{
			"sampler":0,
			"source":0
		}
	],
	"images":[
		{
			"mimeType":"image/jpeg",
			"name":"textured_2_mGACWJ7a",
			"uri":"textured_2_mGACWJ7a.jpg"
		}
	],
	"accessors":[
		{
			"bufferView":0,
			"componentType":5126,
			"count":29378,
			"max":[
				0.4306980073451996,
				0.5216150283813477,
				0
			],
			"min":[
				-0.4450030028820038,
				-0.5628229975700378,
				-0.2788250148296356
			],
			"type":"VEC3"
		},
		{
			"bufferView":1,
			"componentType":5126,
			"count":29378,
			"type":"VEC3"
		},
		{
			"bufferView":2,
			"componentType":5126,
			"count":29378,
			"type":"VEC2"
		},
		{
			"bufferView":3,
			"componentType":5123,
			"count":29382,
			"type":"SCALAR"
		}
	],
	"bufferViews":[
		{
			"buffer":0,
			"byteLength":352536,
			"byteOffset":0,
			"target":34962
		},
		{
			"buffer":0,
			"byteLength":352536,
			"byteOffset":352536,
			"target":34962
		},
		{
			"buffer":0,
			"byteLength":235024,
			"byteOffset":705072,
			"target":34962
		},
		{
			"buffer":0,
			"byteLength":58764,
			"byteOffset":940096,
			"target":34963
		}
	],
	"samplers":[
		{
			"magFilter":9729,
			"minFilter":9987
		}
	],
	"buffers":[
		{
			"byteLength":998860,
			"uri":"hone.bin"
		}
	]
}
