{
	"asset":{
		"generator":"Khronos glTF Blender I/O v4.1.63",
		"version":"2.0"
	},
	"extensionsUsed":[
		"KHR_materials_specular"
	],
	"scene":0,
	"scenes":[
		{
			"name":"Scene",
			"nodes":[
				0
			]
		}
	],
	"nodes":[
		{
			"mesh":0,
			"name":"Smart fusion 1",
			"rotation":[
				-0.10521312057971954,
				-0.6255654692649841,
				0.0339745432138443,
				0.7722978591918945
			]
		}
	],
	"materials":[
		{
			"doubleSided":true,
			"extensions":{
				"KHR_materials_specular":{
					"specularColorFactor":[
						2.0,
						2.0,
						2.0
					]
				}
			},
			"name":"material_0",
			"pbrMetallicRoughness":{
				"baseColorTexture":{
					"index":0
				},
				"metallicFactor":0,
				"roughnessFactor":0
			}
		}
	],
	"meshes":[
		{
			"name":"Smart fusion 1",
			"primitives":[
				{
					"attributes":{
						"POSITION":0,
						"NORMAL":1,
						"TEXCOORD_0":2
					},
					"indices":3,
					"material":0
				}
			]
		}
	],
	"textures":[
		{
			"sampler":0,
			"source":0
		}
	],
	"images":[
		{
			"mimeType":"image/png",
			"name":"HUM-003_2",
			"uri":"HUM-003_2.png"
		}
	],
	"accessors":[
		{
			"bufferView":0,
			"componentType":5126,
			"count":6132389,
			"max":[
				1107.1016845703125,
				329.0077819824219,
				481.765625
			],
			"min":[
				-718.3585815429688,
				-381.32305908203125,
				-410.18096923828125
			],
			"type":"VEC3"
		},
		{
			"bufferView":1,
			"componentType":5126,
			"count":6132389,
			"type":"VEC3"
		},
		{
			"bufferView":2,
			"componentType":5126,
			"count":6132389,
			"type":"VEC2"
		},
		{
			"bufferView":3,
			"componentType":5125,
			"count":6133782,
			"type":"SCALAR"
		}
	],
	"bufferViews":[
		{
			"buffer":0,
			"byteLength":73588668,
			"byteOffset":0,
			"target":34962
		},
		{
			"buffer":0,
			"byteLength":73588668,
			"byteOffset":73588668,
			"target":34962
		},
		{
			"buffer":0,
			"byteLength":49059112,
			"byteOffset":147177336,
			"target":34962
		},
		{
			"buffer":0,
			"byteLength":24535128,
			"byteOffset":196236448,
			"target":34963
		}
	],
	"samplers":[
		{
			"magFilter":9729,
			"minFilter":9987
		}
	],
	"buffers":[
		{
			"byteLength":220771576,
			"uri":"hum-003.bin"
		}
	]
}
